<?xml version="1.0" encoding="utf-8"?>
<!-- Generator: Adobe Illustrator 17.0.0, SVG Export Plug-In . SVG Version: 6.00 Build 0)  -->
<!DOCTYPE svg PUBLIC "-//W3C//DTD SVG 1.1//EN" "http://www.w3.org/Graphics/SVG/1.1/DTD/svg11.dtd">
<svg version="1.1" id="Capa_1" xmlns="http://www.w3.org/2000/svg" xmlns:xlink="http://www.w3.org/1999/xlink" x="0px" y="0px"
	 width="34px" height="34px" viewBox="0 0 34 34" enable-background="new 0 0 34 34" xml:space="preserve">
<g>
	<g>
		<path fill="#FFFFFF" d="M5.078,21.162c0.119,1.963,0.928,3.892,2.428,5.392c3.259,3.259,8.543,3.259,11.802,0
			c3.259-3.259,3.259-8.543,0-11.802s-8.543-3.259-11.802,0c-1.003,1.003-1.697,2.198-2.083,3.467
			c0.506-0.112,1.057,0.028,1.451,0.422c0.613,0.613,0.613,1.607,0,2.22C6.389,21.346,5.664,21.446,5.078,21.162z M14.254,21.409
			c0.664-0.664,1.742-0.664,2.406,0s0.664,1.741,0,2.406c-0.664,0.664-1.742,0.664-2.406,0S13.589,22.073,14.254,21.409z
			 M11.107,14.947c0.566-0.566,1.484-0.566,2.05,0c0.566,0.566,0.566,1.484,0,2.05s-1.484,0.566-2.05,0
			C10.541,16.431,10.541,15.513,11.107,14.947z M8.697,22.247c0.505-0.505,1.325-0.505,1.83,0s0.505,1.325,0,1.83
			c-0.505,0.505-1.325,0.505-1.83,0S8.192,22.753,8.697,22.247z"/>
		<path fill="#FFFFFF" d="M21.86,29.881c0.371-0.426,0.718-0.878,1.047-1.352c0.622-0.896,1.251-1.798,1.821-2.727l0.35-0.55
			c0.235-0.366,0.463-0.735,0.692-1.104c0.228-0.369,4.159-7.099,4.575-7.858c0.209-0.379,0.417-0.758,0.623-1.138l0.612-1.145
			c0.405-0.765,0.81-1.529,1.202-2.301c0.392-0.772,0.784-1.544,1.161-2.324c-0.534,0.683-1.053,1.375-1.573,2.067l-1.549,2.079
			l-1.537,2.084l-1.531,2.085c0,0-5.638,7.582-6.162,8.251c0,0-0.375,0.479-0.392,0.501c-3.202,4.09-8.836,5.757-13.441,2.858
			c-0.616-0.386-1.187-0.843-1.705-1.357c-1.812-1.822-2.847-4.346-2.856-6.915c-0.011-3.154,1.469-5.867,3.863-7.838l0.493-0.398
			l0.5-0.394c0.667-0.526,1.347-1.045,2.028-1.563c0.339-0.261,0.684-0.516,1.027-0.773c0.343-0.258,9.35-6.906,9.35-6.906
			l2.079-1.549c0.692-0.519,1.384-1.039,2.068-1.572c-0.78,0.378-1.551,0.77-2.323,1.163c-0.772,0.391-1.535,0.797-2.3,1.203
			l-1.145,0.613c-0.38,0.207-0.759,0.415-1.138,0.624c-0.758,0.417-1.515,0.837-2.265,1.268c-0.752,0.427-1.503,0.858-2.248,1.3
			c-0.373,0.22-4.075,2.477-4.441,2.712S8.011,9.391,7.648,9.633c-0.364,0.241-0.73,0.477-1.091,0.725l-0.543,0.37l-0.541,0.378
			c-1.202,0.84-2.252,1.782-3.107,2.98c-0.565,0.792-1.035,1.654-1.401,2.56c-0.362,0.907-0.626,1.857-0.768,2.827
			c-0.072,0.485-0.119,0.974-0.134,1.464c-0.015,0.491-0.002,0.982,0.038,1.472c0.082,0.979,0.28,1.951,0.588,2.888
			c0.153,0.469,0.334,0.929,0.543,1.376c0.209,0.447,0.443,0.883,0.701,1.304c0.507,0.822,1.11,1.582,1.784,2.269
			c0,0,0.048,0.048,0.049,0.048c0.686,0.675,1.447,1.278,2.268,1.786c0.843,0.516,1.743,0.939,2.681,1.245
			c0.937,0.307,1.909,0.506,2.889,0.588c0.49,0.04,0.982,0.053,1.472,0.038c0.491-0.014,0.98-0.062,1.465-0.134
			c0.97-0.142,1.921-0.405,2.828-0.768c0.907-0.365,1.769-0.838,2.561-1.402C20.651,31.135,21.285,30.54,21.86,29.881z"/>
		<path fill="#FFFFFF" d="M13.64,9.868c2.635-0.019,4.804,1.082,4.804,1.082l9.319-10.79L13.64,9.868z"/>
		<path fill="#FFFFFF" d="M33.9,6.297l-10.79,9.319c0,0,1.101,2.168,1.082,4.804L33.9,6.297z"/>
	</g>
</g>
</svg>
