<?xml version="1.0" encoding="utf-8"?>
<!-- Generator: Adobe Illustrator 17.0.0, SVG Export Plug-In . SVG Version: 6.00 Build 0)  -->
<!DOCTYPE svg PUBLIC "-//W3C//DTD SVG 1.1//EN" "http://www.w3.org/Graphics/SVG/1.1/DTD/svg11.dtd">
<svg version="1.1" id="Capa_1" xmlns="http://www.w3.org/2000/svg" xmlns:xlink="http://www.w3.org/1999/xlink" x="0px" y="0px"
	 width="215px" height="215px" viewBox="148.5 148.5 215 215" enable-background="new 148.5 148.5 215 215" xml:space="preserve">
<g>
	<g>
		<path fill="#FFFFFF" d="M181.572,283.326c0.738,12.145,5.744,24.08,15.024,33.36c20.165,20.165,52.86,20.165,73.025,0
			c20.165-20.165,20.165-52.859,0-73.025s-52.86-20.165-73.025,0c-6.207,6.207-10.5,13.601-12.886,21.451
			c3.132-0.694,6.541,0.175,8.977,2.611c3.793,3.793,3.793,9.943,0,13.735C189.681,284.466,185.193,285.086,181.572,283.326z
			 M238.344,284.855c4.111-4.111,10.776-4.111,14.886,0c4.111,4.111,4.111,10.775,0,14.886c-4.111,4.111-10.776,4.111-14.886,0
			C234.233,295.63,234.233,288.965,238.344,284.855z M218.873,244.875c3.503-3.503,9.181-3.503,12.683,0
			c3.503,3.503,3.503,9.181,0,12.683c-3.503,3.503-9.181,3.503-12.683,0C215.37,254.057,215.37,248.378,218.873,244.875z
			 M203.962,290.044c3.127-3.127,8.198-3.127,11.325,0c3.127,3.127,3.127,8.198,0,11.325c-3.127,3.127-8.198,3.127-11.325,0
			C200.835,298.242,200.835,293.172,203.962,290.044z"/>
		<path fill="#FFFFFF" d="M285.406,337.278c2.298-2.633,4.442-5.431,6.477-8.363c3.847-5.543,7.741-11.123,11.269-16.875
			l2.168-3.403c1.452-2.266,2.864-4.55,4.283-6.829c1.409-2.286,25.731-43.927,28.308-48.62c1.292-2.344,2.579-4.691,3.854-7.044
			l3.786-7.082c2.505-4.733,5.014-9.46,7.435-14.239c2.425-4.777,4.85-9.552,7.187-14.38c-3.303,4.229-6.517,8.51-9.732,12.79
			l-9.586,12.865l-9.51,12.897l-9.475,12.9c0,0-34.886,46.911-38.127,51.055c0,0-2.321,2.965-2.427,3.099
			c-19.812,25.305-54.671,35.622-83.167,17.681c-3.811-2.389-7.346-5.215-10.549-8.399c-11.209-11.272-17.615-26.891-17.673-42.785
			c-0.071-19.515,9.087-36.3,23.903-48.498l3.049-2.46l3.094-2.438c4.128-3.256,8.332-6.466,12.549-9.67
			c2.098-1.614,4.23-3.193,6.352-4.785c2.121-1.594,57.851-42.732,57.851-42.732l12.865-9.584c4.282-3.213,8.565-6.426,12.793-9.725
			c-4.826,2.34-9.598,4.767-14.37,7.193c-4.774,2.42-9.5,4.934-14.232,7.442l-7.082,3.792c-2.352,1.278-4.698,2.566-7.04,3.86
			c-4.69,2.58-9.371,5.179-14.015,7.843c-4.656,2.645-9.301,5.311-13.91,8.044c-2.307,1.363-25.213,15.325-27.476,16.782
			c-2.266,1.453-4.539,2.884-6.786,4.381c-2.25,1.49-4.515,2.948-6.748,4.488l-3.359,2.291c0,0-3.349,2.341-3.35,2.342
			c-7.436,5.197-13.932,11.028-19.226,18.44c-3.494,4.898-6.406,10.234-8.671,15.84c-2.242,5.613-3.874,11.491-4.751,17.492
			c-0.444,2.999-0.736,6.024-0.829,9.059c-0.09,3.035-0.011,6.077,0.237,9.107c0.509,6.061,1.73,12.071,3.636,17.868
			c0.946,2.9,2.066,5.747,3.362,8.513c1.291,2.768,2.74,5.464,4.338,8.07c3.134,5.083,6.869,9.788,11.039,14.036
			c0,0,0.299,0.298,0.301,0.296c4.242,4.179,8.954,7.905,14.031,11.05c5.214,3.191,10.782,5.811,16.586,7.705
			c5.8,1.901,11.81,3.132,17.873,3.639c3.032,0.248,6.075,0.326,9.111,0.236c3.037-0.084,6.063-0.384,9.063-0.827
			c6.003-0.88,11.885-2.505,17.499-4.754c5.612-2.259,10.944-5.184,15.848-8.674C277.924,345.034,281.85,341.352,285.406,337.278z"
			/>
		<path fill="#FFFFFF" d="M234.548,213.449c16.305-0.12,29.722,6.695,29.722,6.695l57.661-66.765L234.548,213.449z"/>
		<path fill="#FFFFFF" d="M359.904,191.352l-66.765,57.661c0,0,6.815,13.417,6.695,29.722L359.904,191.352z"/>
	</g>
</g>
</svg>
