<?xml version="1.0" encoding="utf-8"?>
<!-- Generator: Adobe Illustrator 21.0.0, SVG Export Plug-In . SVG Version: 6.00 Build 0)  -->
<svg version="1.1" id="Layer_1" xmlns="http://www.w3.org/2000/svg" xmlns:xlink="http://www.w3.org/1999/xlink" x="0px" y="0px"
	 viewBox="0 0 32 32" style="enable-background:new 0 0 32 32;" xml:space="preserve">
<style type="text/css">
	.st0{fill:#FFFFFF;}
</style>
<path class="st0" d="M11,9.8c0,1-0.3,1.9-0.9,2.7S8.8,13.5,8,13.5s-1.5-0.4-2.1-1.1S5,10.8,5,9.8s0.3-1.9,0.9-2.7S7.2,6,8,6
	s1.5,0.4,2.1,1.1S11,8.7,11,9.8z M27,17.3V26H5v-3.8l5-6.3l2.5,3.1l8-10L27,17.3z M28.5,3.5h-25c-0.1,0-0.3,0.1-0.4,0.2S3,4,3,4.1
	v23.8c0,0.2,0,0.3,0.1,0.4s0.2,0.2,0.4,0.2h25c0.1,0,0.3-0.1,0.4-0.2S29,28,29,27.9V4.1c0-0.2,0-0.3-0.1-0.4S28.6,3.5,28.5,3.5z
	 M31,4.1v23.8c0,0.9-0.2,1.6-0.7,2.2S29.2,31,28.5,31h-25c-0.7,0-1.3-0.3-1.8-0.9S1,28.7,1,27.9V4.1c0-0.9,0.2-1.6,0.7-2.2
	S2.8,1,3.5,1h25c0.7,0,1.3,0.3,1.8,0.9S31,3.3,31,4.1z"/>
</svg>
